
      <svg data-logo="logo" xmlns="http://www.w3.org/2000/svg" viewBox="0 0 281 43">
        <g id="logogram" transform="translate(0, 1) rotate(0) "><path d="M46.9107 40.08H63.0578L23.058 0.0799561H6.91068L46.9107 40.08Z" fill="#7476ED"/><path d="M31.3536 0.0799581L69.9128 38.6391V0.0799561H59.478V12.2538L47.3041 0.0799561L31.3536 0.0799581Z" fill="#E56F8C"/><path d="M0.150879 1.41904V40.0798H10.5857V27.9058L22.7595 40.0798H38.8117L0.150879 1.41904Z" fill="#64C2DB"/></g>
        <g id="logotype" transform="translate(76, 1.5)"><path fill="#111111" d="M13.52 33L8.31 33L8.31 7.54L18.24 7.54Q21.14 7.54 23.18 8.64Q25.21 9.74 26.28 11.68Q27.35 13.62 27.35 16.13L27.35 16.13Q27.35 18.66 26.26 20.58Q25.17 22.51 23.12 23.59Q21.06 24.68 18.12 24.68L18.12 24.68L11.73 24.68L11.73 20.47L17.28 20.47Q18.89 20.47 19.92 19.92Q20.95 19.36 21.46 18.39Q21.96 17.41 21.96 16.13L21.96 16.13Q21.96 14.85 21.46 13.88Q20.95 12.90 19.91 12.37Q18.87 11.84 17.26 11.84L17.26 11.84L13.52 11.84L13.52 33ZM33.72 33L28.59 33L28.59 13.89L33.55 13.89L33.55 17.23L33.75 17.23Q34.28 15.45 35.52 14.54Q36.76 13.64 38.37 13.64L38.37 13.64Q38.76 13.64 39.21 13.68Q39.66 13.72 40.02 13.81L40.02 13.81L40.02 18.39Q39.68 18.27 39.03 18.20Q38.38 18.13 37.80 18.13L37.80 18.13Q36.64 18.13 35.70 18.64Q34.76 19.14 34.24 20.04Q33.72 20.93 33.72 22.13L33.72 22.13L33.72 33ZM49.11 33.38L49.11 33.38Q46.24 33.38 44.14 32.14Q42.04 30.90 40.90 28.68Q39.77 26.47 39.77 23.53L39.77 23.53Q39.77 20.56 40.90 18.35Q42.04 16.13 44.14 14.89Q46.24 13.65 49.11 13.65L49.11 13.65Q52.00 13.65 54.10 14.89Q56.19 16.13 57.33 18.35Q58.46 20.56 58.46 23.53L58.46 23.53Q58.46 26.47 57.33 28.68Q56.19 30.90 54.10 32.14Q52.00 33.38 49.11 33.38ZM49.11 29.34L49.11 29.34Q50.48 29.34 51.40 28.58Q52.33 27.82 52.79 26.50Q53.25 25.17 53.25 23.52L53.25 23.52Q53.25 21.82 52.79 20.51Q52.33 19.19 51.40 18.44Q50.48 17.69 49.11 17.69L49.11 17.69Q47.75 17.69 46.83 18.44Q45.92 19.19 45.46 20.51Q44.99 21.82 44.99 23.52L44.99 23.52Q44.99 25.17 45.46 26.50Q45.92 27.82 46.83 28.58Q47.75 29.34 49.11 29.34ZM64.89 33L59.76 33L59.76 13.89L64.51 13.89L64.77 18.64L64.39 18.64Q64.83 16.88 65.70 15.77Q66.56 14.66 67.72 14.13Q68.88 13.60 70.17 13.60L70.17 13.60Q72.23 13.60 73.50 14.91Q74.76 16.22 75.36 18.95L75.36 18.95L74.76 18.95Q75.19 17.12 76.16 15.94Q77.12 14.75 78.45 14.18Q79.77 13.60 81.22 13.60L81.22 13.60Q82.98 13.60 84.36 14.37Q85.74 15.14 86.53 16.59Q87.32 18.03 87.32 20.11L87.32 20.11L87.32 33L82.20 33L82.20 21.09Q82.20 19.46 81.32 18.68Q80.44 17.89 79.16 17.89L79.16 17.89Q78.20 17.89 77.49 18.31Q76.78 18.73 76.40 19.48Q76.01 20.23 76.01 21.24L76.01 21.24L76.01 33L71.05 33L71.05 20.95Q71.05 19.55 70.23 18.72Q69.40 17.89 68.08 17.89L68.08 17.89Q67.18 17.89 66.45 18.30Q65.72 18.71 65.30 19.51Q64.89 20.30 64.89 21.45L64.89 21.45L64.89 33ZM94.55 40.14L89.42 40.14L89.42 13.89L94.47 13.89L94.47 17.11L94.71 17.11Q95.06 16.35 95.72 15.55Q96.38 14.75 97.46 14.20Q98.53 13.65 100.16 13.65L100.16 13.65Q102.28 13.65 104.04 14.75Q105.80 15.84 106.85 18.03Q107.90 20.22 107.90 23.48L107.90 23.48Q107.90 26.66 106.87 28.86Q105.85 31.05 104.09 32.19Q102.33 33.32 100.12 33.32L100.12 33.32Q98.57 33.32 97.49 32.79Q96.41 32.27 95.74 31.49Q95.06 30.71 94.71 29.94L94.71 29.94L94.55 29.94L94.55 40.14ZM98.55 29.21L98.55 29.21Q99.88 29.21 100.80 28.47Q101.71 27.74 102.18 26.44Q102.65 25.14 102.65 23.46L102.65 23.46Q102.65 21.79 102.18 20.51Q101.71 19.23 100.81 18.49Q99.90 17.76 98.55 17.76L98.55 17.76Q97.23 17.76 96.31 18.47Q95.39 19.17 94.91 20.45Q94.43 21.72 94.43 23.46L94.43 23.46Q94.43 25.19 94.92 26.48Q95.41 27.77 96.33 28.49Q97.25 29.21 98.55 29.21ZM107.37 13.89L118.70 13.89L118.70 17.81L107.37 17.81L107.37 13.89ZM110.00 27.86L110.00 9.35L115.13 9.35L115.13 27.41Q115.13 28.32 115.53 28.75Q115.93 29.19 116.87 29.19L116.87 29.19Q117.16 29.19 117.69 29.11Q118.22 29.04 118.49 28.97L118.49 28.97L119.23 32.81Q118.37 33.07 117.53 33.17Q116.68 33.27 115.91 33.27L115.91 33.27Q113.04 33.27 111.52 31.87Q110.00 30.47 110.00 27.86L110.00 27.86ZM140.16 33L133.34 33L124.42 7.54L130.21 7.54L134.28 19.82Q135.01 22.15 135.77 24.94Q136.52 27.74 137.36 31.05L137.36 31.05L136.23 31.05Q137.05 27.70 137.77 24.93Q138.48 22.15 139.18 19.82L139.18 19.82L143.11 7.54L148.87 7.54L140.16 33ZM154.96 33.38L154.96 33.38Q153.14 33.38 151.70 32.74Q150.26 32.09 149.43 30.82Q148.60 29.55 148.60 27.65L148.60 27.65Q148.60 26.06 149.19 24.98Q149.78 23.91 150.79 23.26Q151.81 22.61 153.10 22.27Q154.39 21.93 155.81 21.79L155.81 21.79Q157.47 21.62 158.48 21.47Q159.50 21.33 159.97 21.01Q160.44 20.70 160.44 20.08L160.44 20.08L160.44 19.99Q160.44 19.17 160.10 18.61Q159.76 18.05 159.09 17.75Q158.42 17.45 157.45 17.45L157.45 17.45Q156.46 17.45 155.72 17.75Q154.99 18.05 154.53 18.54Q154.07 19.04 153.84 19.65L153.84 19.65L149.15 18.87Q149.64 17.21 150.79 16.05Q151.93 14.88 153.63 14.27Q155.33 13.65 157.45 13.65L157.45 13.65Q159.01 13.65 160.46 14.02Q161.91 14.39 163.06 15.16Q164.22 15.93 164.89 17.16Q165.57 18.39 165.57 20.13L165.57 20.13L165.57 33L160.72 33L160.72 30.35L160.54 30.35Q160.08 31.24 159.31 31.91Q158.54 32.59 157.46 32.98Q156.37 33.38 154.96 33.38ZM156.41 29.77L156.41 29.77Q157.62 29.77 158.54 29.29Q159.45 28.81 159.96 27.99Q160.48 27.17 160.48 26.16L160.48 26.16L160.48 24.10Q160.25 24.27 159.79 24.40Q159.33 24.54 158.77 24.64Q158.20 24.75 157.66 24.83Q157.11 24.92 156.68 24.97L156.68 24.97Q155.74 25.10 155.02 25.41Q154.31 25.72 153.91 26.22Q153.52 26.73 153.52 27.51L153.52 27.51Q153.52 28.25 153.90 28.75Q154.27 29.26 154.91 29.51Q155.55 29.77 156.41 29.77ZM174.25 33.24L174.25 33.24Q172.27 33.24 170.78 32.38Q169.29 31.51 168.48 29.90Q167.67 28.28 167.67 26.04L167.67 26.04L167.67 13.89L172.80 13.89L172.80 25.16Q172.80 26.93 173.72 27.94Q174.64 28.95 176.25 28.95L176.25 28.95Q177.34 28.95 178.18 28.48Q179.02 28.01 179.49 27.11Q179.96 26.22 179.96 24.95L179.96 24.95L179.96 13.89L185.08 13.89L185.08 33L180.25 33L180.18 28.23L180.47 28.23Q179.72 30.64 178.17 31.94Q176.62 33.24 174.25 33.24ZM187.18 7.54L192.31 7.54L192.31 33L187.18 33L187.18 7.54ZM192.55 13.89L203.88 13.89L203.88 17.81L192.55 17.81L192.55 13.89ZM195.18 27.86L195.18 9.35L200.31 9.35L200.31 27.41Q200.31 28.32 200.71 28.75Q201.11 29.19 202.05 29.19L202.05 29.19Q202.34 29.19 202.87 29.11Q203.40 29.04 203.67 28.97L203.67 28.97L204.41 32.81Q203.55 33.07 202.71 33.17Q201.86 33.27 201.09 33.27L201.09 33.27Q198.22 33.27 196.70 31.87Q195.18 30.47 195.18 27.86L195.18 27.86Z"/></g>
        
      </svg>
    